<svg width="35" height="36" viewBox="0 0 35 36" fill="none" xmlns="http://www.w3.org/2000/svg">
<path d="M22.7507 18C22.7507 19.4321 22.1976 20.8057 21.213 21.8183C20.2284 22.831 18.8931 23.4 17.5007 23.4C16.1083 23.4 14.7729 22.831 13.7884 21.8183C12.8038 20.8057 12.2507 19.4321 12.2507 18C12.2507 17.6922 12.2822 17.3916 12.3364 17.1H10.5007V24.2946C10.5007 24.795 10.8944 25.2 11.3809 25.2H23.6222C23.8553 25.1995 24.0788 25.1039 24.2435 24.9341C24.4082 24.7644 24.5007 24.5344 24.5007 24.2946V17.1H22.6649C22.7192 17.3916 22.7507 17.6922 22.7507 18ZM17.5007 21.6C17.9604 21.5999 18.4156 21.5066 18.8403 21.3255C19.265 21.1445 19.6509 20.8791 19.9759 20.5447C20.3009 20.2102 20.5587 19.8132 20.7345 19.3762C20.9104 18.9393 21.0008 18.471 21.0007 17.9982C21.0006 17.5253 20.9099 17.0571 20.7339 16.6202C20.5578 16.1834 20.2999 15.7865 19.9747 15.4522C19.6495 15.1179 19.2635 14.8528 18.8387 14.6719C18.4139 14.4911 17.9587 14.3981 17.4989 14.3982C16.5704 14.3984 15.6801 14.778 15.0237 15.4535C14.3673 16.129 13.9987 17.045 13.9989 18C13.9992 18.955 14.3682 19.8708 15.0249 20.5459C15.6816 21.2211 16.5722 21.6002 17.5007 21.6ZM21.7007 14.22H23.7989C23.9383 14.22 24.0721 14.1631 24.1708 14.0619C24.2695 13.9607 24.3252 13.8234 24.3257 13.68V11.5218C24.3257 11.3781 24.2702 11.2403 24.1714 11.1387C24.0726 11.0371 23.9386 10.98 23.7989 10.98H21.7007C21.561 10.98 21.427 11.0371 21.3282 11.1387C21.2294 11.2403 21.1739 11.3781 21.1739 11.5218V13.68C21.1757 13.977 21.4119 14.22 21.7007 14.22ZM17.5007 0.719971C13.045 0.719971 8.7719 2.54054 5.62129 5.78117C2.47068 9.02179 0.700684 13.417 0.700684 18C0.700684 22.5829 2.47068 26.9781 5.62129 30.2188C8.7719 33.4594 13.045 35.28 17.5007 35.28C19.7069 35.28 21.8915 34.833 23.9298 33.9646C25.968 33.0962 27.8201 31.8234 29.3801 30.2188C30.9401 28.6142 32.1776 26.7092 33.0219 24.6127C33.8661 22.5162 34.3007 20.2692 34.3007 18C34.3007 15.7307 33.8661 13.4837 33.0219 11.3872C32.1776 9.29069 30.9401 7.38576 29.3801 5.78117C27.8201 4.17657 25.968 2.90373 23.9298 2.03533C21.8915 1.16693 19.7069 0.719971 17.5007 0.719971ZM26.2507 25.0002C26.2507 26.1 25.3757 27 24.3064 27H10.6949C9.62568 27 8.75068 26.1 8.75068 25.0002V10.9998C8.75068 9.89997 9.62568 8.99997 10.6949 8.99997H24.3064C25.3757 8.99997 26.2507 9.89997 26.2507 10.9998V25.0002Z" fill="#081B30"/>
</svg>
