<svg width="38" height="37" viewBox="0 0 38 37" fill="none" xmlns="http://www.w3.org/2000/svg">
<path d="M22.0464 18.191L17.779 16.2522C17.4066 16.0839 17.1007 16.2726 17.1007 16.674V20.3259C17.1007 20.7274 17.4066 20.9161 17.779 20.7477L22.0445 18.8089C22.4188 18.6387 22.4188 18.3612 22.0464 18.191ZM19.0007 0.73999C8.92694 0.73999 0.760742 8.69129 0.760742 18.5C0.760742 28.3087 8.92694 36.26 19.0007 36.26C29.0745 36.26 37.2407 28.3087 37.2407 18.5C37.2407 8.69129 29.0745 0.73999 19.0007 0.73999ZM19.0007 25.715C9.66414 25.715 9.50074 24.8954 9.50074 18.5C9.50074 12.1045 9.66414 11.285 19.0007 11.285C28.3373 11.285 28.5007 12.1045 28.5007 18.5C28.5007 24.8954 28.3373 25.715 19.0007 25.715Z" fill="#081B30"/>
</svg>
